<?xml version="1.0" encoding="UTF-8"?>
<svg id="Camada_1" xmlns="http://www.w3.org/2000/svg" version="1.1" viewBox="0 0 850.39 850.39">
  <!-- Generator: Adobe Illustrator 29.0.0, SVG Export Plug-In . SVG Version: 2.1.0 Build 186)  -->
  <defs>
    <style>
      .st0 {
        fill: #1d1d1b;
      }

      .st1 {
        fill: #fff;
      }
    </style>
  </defs>
  <rect class="st0" x="0" width="850.39" height="850.39"/>
  <g>
    <path class="st1" d="M315.87,431.35c-12.05,0-20.98-2.58-26.78-7.76-5.8-5.17-8.7-13.22-8.7-24.14v-32.06h-12.62v-28.14h12.45v-20.13h38.21v20.13h19.44v28.14h-19.44v23.88c0,4.32.94,7.25,2.81,8.78,1.88,1.54,4.46,2.3,7.76,2.3,1.25,0,2.56-.11,3.92-.34,1.37-.23,2.45-.45,3.24-.68v26.95c-2.05.91-4.92,1.65-8.61,2.22-3.7.57-7.59.85-11.68.85Z"/>
    <path class="st1" d="M348.61,339.25h37.86v10.23h.34c1.93-3.64,4.8-6.65,8.61-9.04s8.27-3.58,13.39-3.58c3.07,0,5.57.29,7.5.85l-3.07,33.43c-1.25-.34-2.64-.6-4.18-.77s-2.93-.26-4.18-.26c-5.12,0-9.21,1.48-12.28,4.43-3.07,2.96-4.61,6.6-4.61,10.92v43.49h-39.4v-89.72Z"/>
    <path class="st1" d="M519.51,428.97h-38.38v-9.89h-.34c-2.28,3.3-5.66,6.17-10.15,8.61-4.49,2.44-9.64,3.67-15.44,3.67-6.37,0-11.6-1.11-15.69-3.32-4.09-2.22-7.36-5.12-9.81-8.7-2.45-3.58-4.15-7.62-5.12-12.11-.97-4.49-1.45-8.96-1.45-13.39v-54.58h39.4v47.42c0,4.55.72,7.73,2.15,9.55,1.43,1.82,3.59,2.73,6.46,2.73,2.64,0,4.79-1.05,6.46-3.15,1.66-2.11,2.5-5.15,2.5-9.13v-47.42h39.4v89.72Z"/>
    <path class="st1" d="M576.14,432.38c-7.62,0-14.61-1.14-20.98-3.41s-11.88-5.51-16.54-9.72c-4.66-4.21-8.3-9.27-10.92-15.18-2.62-5.91-3.92-12.56-3.92-19.96s1.34-13.9,4.01-19.87c2.67-5.97,6.4-11.06,11.17-15.27,4.78-4.21,10.38-7.44,16.8-9.72,6.42-2.27,13.39-3.41,20.89-3.41,3.07,0,6.17.26,9.29.77s6.14,1.22,9.04,2.13c2.9.91,5.57,1.93,8.02,3.07,2.44,1.14,4.52,2.39,6.22,3.75l-19.61,28.31c-1.36-1.53-3.15-2.71-5.37-3.54-2.22-.82-4.35-1.24-6.4-1.24-1.93,0-3.81.32-5.63.94-1.82.63-3.44,1.59-4.86,2.9-1.42,1.31-2.59,2.9-3.5,4.78-.91,1.88-1.36,4.07-1.36,6.57s.45,4.69,1.36,6.57c.91,1.88,2.07,3.41,3.5,4.6,1.42,1.2,3.04,2.11,4.86,2.73,1.82.63,3.69.94,5.63.94,2.27,0,4.49-.43,6.65-1.28,2.16-.85,3.92-2.02,5.29-3.5l19.79,27.51c-3.75,2.94-8.61,5.43-14.58,7.47-5.97,2.04-12.25,3.06-18.85,3.06Z"/>
    <path class="st1" d="M656.13,431.35c-12.05,0-20.98-2.58-26.78-7.76-5.8-5.17-8.7-13.22-8.7-24.14v-32.06h-12.62v-28.14h12.45v-20.13h38.21v20.13h19.44v28.14h-19.44v23.88c0,4.32.94,7.25,2.81,8.78,1.88,1.54,4.46,2.3,7.76,2.3,1.25,0,2.56-.11,3.92-.34,1.37-.23,2.45-.45,3.24-.68v26.95c-2.05.91-4.92,1.65-8.61,2.22-3.7.57-7.59.85-11.68.85Z"/>
  </g>
  <g>
    <path class="st1" d="M343.12,471.93c-.95-.42-2.05-.77-3.3-1.03-1.26-.26-2.51-.4-3.77-.4-3.56,0-6.05,1.11-7.47,3.33-1.42,2.22-2.12,5.03-2.12,8.41v1.11h17.62v26.19h-17.62v57.3h-36.66v-57.3h-14.29v-26.19h14.29v-1.9c0-5.18.61-10.16,1.82-14.92s3.31-8.97,6.27-12.62,6.96-6.53,11.98-8.65c5.02-2.12,11.35-3.17,18.96-3.17,2.43,0,5.26.19,8.49.56,3.23.37,5.95.98,8.18,1.82l-2.38,27.46ZM350.1,446.85h37.46v119.98h-37.46v-119.98Z"/>
    <path class="st1" d="M496.27,524.78c0,7.2-1.3,13.6-3.89,19.2-2.59,5.61-6.09,10.34-10.47,14.2-4.39,3.86-9.47,6.8-15.24,8.81-5.77,2.01-11.82,3.02-18.17,3.02s-12.25-1.01-18.01-3.02c-5.77-2.01-10.82-4.94-15.16-8.81-4.34-3.86-7.8-8.59-10.39-14.2-2.59-5.61-3.89-12.01-3.89-19.2s1.3-13.41,3.89-18.96c2.59-5.56,6.05-10.24,10.39-14.05,4.34-3.81,9.39-6.69,15.16-8.65,5.77-1.96,11.77-2.94,18.01-2.94s12.41.98,18.17,2.94c5.77,1.96,10.84,4.84,15.24,8.65,4.39,3.81,7.88,8.49,10.47,14.05,2.59,5.55,3.89,11.88,3.89,18.96ZM448.5,511.13c-4.02,0-7.27,1.38-9.76,4.12-2.49,2.75-3.73,5.98-3.73,9.68,0,3.92,1.27,7.25,3.81,10s5.82,4.12,9.84,4.12,7.3-1.37,9.84-4.12c2.54-2.75,3.81-6.08,3.81-10,0-3.7-1.3-6.93-3.89-9.68-2.6-2.75-5.9-4.12-9.92-4.12Z"/>
  </g>
  <path class="st1" d="M743,453.35c3.31-.68,5.09,1.92,5.37,4.89,1.74,18.67-1.35,39.97,0,58.92-.13,20.96-5.39,42.16-28.06,48.41-40.88,11.28-59.85-38.91-77.73-65.72-11.03-16.54-20.65-25.58-33.23-3.37-13.69,24.17-24.4,63.43-55.82,69.58-20.71,4.05-28.14-4.63-35.39-22.1-6.11-14.72-11.23-32.83-14.75-48.41-.76-3.38-2.5-9.47-2.62-12.61-.06-1.42.13-2.55,1.16-3.57l30.47-.47c1.5-.16,2.35,1.89,2.56,3.14,2.8,16.49,1.59,48.91,12.87,61.68,7.48,8.47,17.3,4.32,22.4-4.18,10.62-17.71,14.13-43.24,23.27-62.22,13.83-28.74,43.99-17.33,62.66-.55,17.72,15.92,37.25,50.11,61.19,54.71,17.1,3.28,20.15-7.9,21.48-21.94,1.65-17.47.64-35.15.98-52.68.2-1.45,1.76-3.22,3.17-3.51Z"/>
  <path class="st1" d="M267.62,558.75c.93,4.52-2.62,6.96-6.68,7.34-25.51,2.37-54.64-1.85-80.53,0-28.66-.18-57.62-7.37-66.17-38.35-15.42-55.89,53.18-81.81,89.83-106.24,22.61-15.08,34.96-28.23,4.61-45.42-33.04-18.72-86.7-33.35-95.11-76.3-5.54-28.31,6.33-38.47,30.21-48.37,20.12-8.35,44.88-15.35,66.18-20.16,4.62-1.04,12.95-3.41,17.24-3.58,1.94-.08,3.48.18,4.88,1.59l.64,41.65c.22,2.04-2.59,3.21-4.29,3.5-22.53,3.83-66.86,2.18-84.32,17.6-11.58,10.22-5.9,23.65,5.71,30.62,24.2,14.52,59.1,19.32,85.04,31.81,39.28,18.91,23.69,60.12.75,85.65-21.76,24.22-68.5,50.91-74.78,83.65-4.48,23.37,10.8,27.54,29.99,29.36,23.87,2.26,48.04.88,72,1.34,1.99.27,4.4,2.4,4.79,4.34Z"/>
</svg>